<svg xmlns="http://www.w3.org/2000/svg" viewBox="0 0 96 96" role="img" aria-labelledby="title desc">
  <title id="title">EscoAPesca — simbolo</title>
  <desc id="desc">Pesce geometrico attraversato da una corrente che termina in un amo.</desc>
  <defs>
    <linearGradient id="water" x1="10" y1="24" x2="86" y2="72" gradientUnits="userSpaceOnUse">
      <stop stop-color="#78FFE8"/><stop offset="1" stop-color="#2F8FFF"/>
    </linearGradient>
    <linearGradient id="signal" x1="36" y1="50" x2="76" y2="84" gradientUnits="userSpaceOnUse">
      <stop stop-color="#D8FF5F"/><stop offset="1" stop-color="#A8FF3E"/>
    </linearGradient>
  </defs>
  <path d="M22 35 7 25l5 23-5 23 15-10c-4-8-4-18 0-26Z" fill="url(#water)" opacity=".82"/>
  <path d="M17 48c12-18 35-25 58-14 13 6 13 22 0 28-23 11-46 4-58-14Z" fill="url(#water)"/>
  <path d="M24 48c12-8 27-10 43-5M25 54c10 5 21 7 33 5" fill="none" stroke="#E8FFFB" stroke-width="3" stroke-linecap="round" opacity=".76"/>
  <circle cx="72" cy="42" r="3.2" fill="#03101B"/><circle cx="71.1" cy="41.1" r="1" fill="#E8FFFB"/>
  <path d="M49 57v14c0 10 13 16 21 9 6-5 3-13-4-13" fill="none" stroke="url(#signal)" stroke-width="4.5" stroke-linecap="round"/>
  <circle cx="49" cy="57" r="2.6" fill="#D8FF5F"/>
</svg>
